<svg width="324" height="56" viewBox="0 0 324 56" fill="none" xmlns="http://www.w3.org/2000/svg">
<g clip-path="url(#clip0_289_142)">
<path d="M9.83999 0.850006V10.7H-0.0100098V55.15H44.44V45.3H54.29V0.850006H9.83999ZM44.44 45.3H24.67L9.83999 22.56V10.7H21.71L44.44 25.53V45.3Z" fill="black"/>
<path d="M40.56 29.42H28.56V41.42H40.56V29.42Z" fill="black"/>
<path d="M95.08 30.47H113.45V24.86H95.08V16.84H115.91V11.14H88.9V44.96H116.11V39.26H95.08V30.47Z" fill="black"/>
<path d="M149.21 11.14L141.53 30.33C141.11 31.33 140.65 32.42 140.15 33.62C139.65 34.81 139.17 36 138.7 37.2C138.55 37.59 138.42 37.95 138.28 38.32C138.22 38.16 138.16 38 138.1 37.83C137.74 36.9 137.36 35.96 136.94 35.03C136.52 34.1 136.13 33.22 135.76 32.4C135.39 31.58 135.09 30.86 134.87 30.25L126.61 11.16H119.79L134.82 44.99H141.39L156.18 11.16H149.22L149.21 11.14Z" fill="black"/>
<path d="M168.69 11.14L153.03 44.97H159.46L162.89 37.58H180.64L184.06 44.97H190.73L175.17 11.14H168.69ZM165.41 32.11L169.26 23.8C169.55 23.16 169.84 22.5 170.13 21.84C170.42 21.18 170.71 20.51 171 19.83C171.28 19.18 171.54 18.52 171.79 17.84C172.03 18.48 172.27 19.11 172.52 19.73C172.79 20.41 173.08 21.08 173.37 21.76C173.66 22.44 173.93 23.06 174.19 23.64L178.1 32.1H165.41V32.11Z" fill="black"/>
<path d="M201.74 11.14H195.46V44.96H222.23V39.17H201.74V11.14Z" fill="black"/>
<path d="M232.67 11.14H229.53V44.97H235.81V11.14H232.67Z" fill="black"/>
<path d="M276.67 15.58C274.91 14 272.83 12.77 270.44 11.88C268.04 10.99 265.41 10.55 262.54 10.55C259.67 10.55 257.09 10.99 254.69 11.88C252.29 12.77 250.2 14 248.43 15.58C246.66 17.16 245.29 19 244.32 21.11C243.35 23.22 242.87 25.52 242.87 28C242.87 30.48 243.35 32.78 244.32 34.89C245.29 37 246.66 38.84 248.43 40.42C250.2 42 252.29 43.23 254.69 44.12C257.09 45.01 259.71 45.45 262.54 45.45C265.37 45.45 268.04 45.01 270.44 44.12C272.84 43.23 274.92 42 276.67 40.42C278.42 38.84 279.79 37 280.78 34.89C281.76 32.78 282.25 30.48 282.25 28C282.25 25.52 281.76 23.22 280.78 21.11C279.8 19 278.43 17.16 276.67 15.58ZM274.88 32.5C274.22 33.88 273.29 35.1 272.1 36.15C270.91 37.2 269.51 38.01 267.9 38.59C266.29 39.17 264.5 39.46 262.54 39.46C260.58 39.46 258.83 39.17 257.2 38.59C255.57 38.01 254.17 37.21 253 36.17C251.82 35.14 250.91 33.92 250.27 32.52C249.63 31.12 249.3 29.61 249.3 28C249.3 26.39 249.62 24.84 250.27 23.46C250.91 22.07 251.82 20.87 253 19.84C254.18 18.81 255.58 18 257.2 17.42C258.83 16.84 260.61 16.55 262.54 16.55C264.47 16.55 266.29 16.84 267.9 17.42C269.51 18 270.91 18.81 272.1 19.86C273.29 20.91 274.22 22.12 274.88 23.51C275.54 24.9 275.87 26.39 275.87 28C275.87 29.61 275.54 31.11 274.88 32.49V32.5Z" fill="black"/>
<path d="M317.77 11.14V21.29C317.77 22.42 317.77 23.55 317.79 24.67C317.8 25.8 317.84 26.93 317.89 28.05C317.94 29.18 317.99 30.29 318.06 31.39C318.12 32.49 318.21 33.56 318.33 34.63C318.4 35.33 318.5 36.01 318.6 36.69L294.96 11.14H288.92V44.97H295.15V31.87C295.15 31 295.13 30.11 295.1 29.21C295.07 28.31 295.02 27.42 294.96 26.55C294.89 25.68 294.81 24.8 294.72 23.92C294.62 23.03 294.53 22.15 294.45 21.26C294.41 20.84 294.37 20.41 294.32 19.99L317.86 44.97H324V11.14H317.77Z" fill="black"/>
</g>
<defs>
<clipPath id="clip0_289_142">
<rect width="324.02" height="54.3" fill="white" transform="translate(-0.0100098 0.850006)"/>
</clipPath>
</defs>
</svg>
